<?xml version="1.0" encoding="UTF-8"?>
<svg xmlns="http://www.w3.org/2000/svg" version="1.1" viewBox="0 0 866.9 767.5">
  <defs>
    <style>
      .cls-1 {
        fill: #0e4572;
      }

      .cls-2, .cls-3 {
        fill: #262626;
      }

      .cls-3 {
        font-family: Seravek-Bold, Seravek;
        font-size: 230px;
        font-weight: 700;
      }
    </style>
  </defs>
  <!-- Generator: Adobe Illustrator 28.7.1, SVG Export Plug-In . SVG Version: 1.2.0 Build 142)  -->
  <g>
    <g id="Layer_1">
      <g>
        <path class="cls-1" d="M422.7,24.6c-4.7,1.9-55.7,22.5-113.5,45.6-57.7,23.2-105.1,42.2-105.3,42.3-.2.2-.5,11.7-.9,25.6-.6,27.3.8,66.1,3.2,89.8,8.8,85.2,36.6,147.1,90.5,201.2,30.9,31.1,68.8,57.3,118.6,82.2l17.1,8.5,16.4-8.5c34.7-18,61.3-34.5,83.4-51.8,67.3-52.5,105-114.4,119.9-197,6-33.2,7.6-54.3,8.3-107l.5-43-71.8-28.7c-95-37.9-157.5-62.8-157.7-62.8-.1.1-4,1.7-8.7,3.6ZM453.7,57.3c11.8,4.6,53.2,21,92,36.4s75,29.8,80.5,31.9l10,3.9-.3,22.5c-1.7,124.1-24.6,194.8-82.6,254.8-28.2,29.2-58.9,51.4-104.8,75.8l-15.8,8.4-13.7-6.9c-53.4-26.7-98.4-61.5-126.6-97.6-36.1-46.3-54.2-95.4-61.2-165.5-1.8-18.4-3.7-65.1-3.3-80.5l.3-10.9,100.5-40.2c55.3-22.1,101.2-40.3,102-40.3.9-.1,11.2,3.7,23,8.2Z"/>
        <path class="cls-1" d="M418.4,103.2c-31.2,2.3-61.4,14.3-85.4,34-7.8,6.3-11.3,10.2-11.3,12.5s2.8,4.4,6.2,7.9c8,8.4,9,8.4,20.2-.6,19.7-15.7,38-23.7,63-27.7,15-2.3,40.7-1.4,54.1,2.1,20.7,5.3,36.3,13.2,52.4,26.6,8.2,6.8,10.4,7.6,14.6,5,4.3-2.7,10.5-10.3,10.5-12.9,0-5.7-21.4-22.5-40.5-31.7-25.1-12.2-54.3-17.5-83.8-15.2Z"/>
        <path class="cls-1" d="M416.2,154c-9.8,1.5-24.8,6.9-34.2,12.2-12.4,7.2-24.3,16.4-24.3,19,0,4.2,10.9,14.8,15.2,14.8s6.4-3.3,12.5-7.4c18-11.8,29.8-15.3,48.6-14.3,18,.9,31.6,5.7,47.6,16.8,6.9,4.7,9.5,6,11.4,5.6,1.3-.4,5.1-3.5,8.5-7,4.8-5.1,6-6.9,5.5-8.7-.7-2.5-12.6-12.3-21.1-17.3-8.4-4.9-20.2-9.6-30-11.8-10-2.3-30.6-3.3-39.7-1.9Z"/>
        <path class="cls-2" d="M418.6,205.4c-25.5,7.1-40.6,34.1-32.9,58.9,4.1,13.3,15.9,26.1,28,30.4l5,1.8v63.3c0,69.8-.1,68.3,6.2,72.2,9.4,5.7,19.8-.9,19.8-12.6v-5.4h40v-24h-21v-20h21v-24h-40v-49.6l3.8-1.3c10.1-3.6,21.4-14.1,26.2-24.3,6.4-13.7,6.2-27.9-.5-41.4-5.7-11.7-18-21.4-30.6-24.3-6-1.4-19.4-1.2-25,.3ZM441.2,229.4c10.1,4.7,15.8,15.5,13.5,25.9-2.1,9.9-8.7,16.5-18.7,18.7-14,3.2-27.3-8-27.3-22.8s17.2-29,32.5-21.8Z"/>
      </g>
      <text class="cls-3" transform="translate(21.9 701.2)"><tspan x="0" y="0">savekey</tspan></text>
    </g>
  </g>
</svg>