<?xml version="1.0" encoding="UTF-8"?>
<svg xmlns="http://www.w3.org/2000/svg" version="1.1" viewBox="0 0 866.9 256.5">
  <defs>
    <style>
      .cls-1 {
        isolation: isolate;
      }

      .cls-2 {
        fill: #262626;
      }
    </style>
  </defs>
  <!-- Generator: Adobe Illustrator 28.7.1, SVG Export Plug-In . SVG Version: 1.2.0 Build 142)  -->
  <g>
    <g id="Layer_1">
      <g id="Layer_1-2" data-name="Layer_1">
        <g id="Layer_1-2">
          <g class="cls-1">
            <g class="cls-1">
              <path class="cls-2" d="M116,153.4c0,6.3-1.2,11.9-3.6,16.8-2.4,4.9-5.8,9-10.1,12.3-4.4,3.3-9.5,5.8-15.5,7.5s-12.6,2.5-19.8,2.5-12.6-.6-19.3-1.7c-6.7-1.2-12.9-2.9-18.4-5.2l5.1-25.5c4.8,2,10,3.5,15.8,4.5s10.8,1.5,15.1,1.5,8.3-.7,11.6-2c3.3-1.3,4.9-3.5,4.9-6.6s-1.5-4.7-4.4-5.9c-2.9-1.1-7.3-2.8-13.1-4.9-4.8-1.7-9.2-3.6-13.3-5.6-4.1-2.1-7.7-4.5-10.7-7.4-3-2.8-5.3-6.1-7-9.8s-2.5-8-2.5-12.9c0-12.3,4.1-21.3,12.4-27.1,8.3-5.8,19.1-8.7,32.4-8.7s13.5.7,19.3,2,11.4,3.5,16.8,6.6l-5.1,24.2c-4.1-1.8-8.5-3.3-13.1-4.5-4.6-1.1-9.4-1.7-14.5-1.7s-7.9.4-10.2,1.3c-2.4.8-3.6,2.6-3.6,5.2s1.4,4.5,4.3,5.6c2.8,1.1,6.5,2.6,10.9,4.3,3.4,1.2,7.1,2.7,11.3,4.5,4.1,1.8,8,4,11.6,6.8s6.6,6.1,9.1,10,3.7,8.6,3.7,14.1v-.2Z"/>
              <path class="cls-2" d="M196.9,179.2c-3.5,3.5-8.3,6.6-14.4,9.3-6.1,2.7-12.7,4-19.9,4s-9.6-.8-13.6-2.5-7.3-4-10-6.9-4.8-6.3-6.2-10.2c-1.5-3.9-2.2-8.1-2.2-12.5,0-10.4,3.3-18.3,9.8-23.6s15.8-8.4,27.7-9.3c4.4-.3,9.2-.5,14.1-.7,5-.2,9.4-.3,13.2-.5v-3.7c0-12.3-6.8-18.4-20.5-18.4s-10.5.6-15.5,1.8-9.5,2.9-13.7,5.1l-6.7-25.5c5.4-3.1,11.7-5.6,19-7.5s15.2-2.9,23.8-2.9c15.8,0,28.1,4.1,37,12.3s13.3,20.5,13.3,36.9v65.8h-35.4v-11h.2ZM176.9,168.4c3.5,0,6.9-.5,10-1.4s6-2.1,8.6-3.7v-16.8c-3.7.3-7,.7-9.9,1-2.9.4-5.8.7-8.5,1-7.5.9-11.3,4.4-11.3,10.6s1,5,2.9,6.7,4.6,2.5,8.2,2.5h0Z"/>
              <path class="cls-2" d="M282.3,190.2l-39.1-112.7h37l21.6,79.1,21.6-79.1h37l-39.1,112.7h-39.1.1Z"/>
              <path class="cls-2" d="M423.5,75.2c14.7,0,26.4,4.3,35,13s12.9,20.7,12.9,36-.7,12-2.1,18.6h-65.3c.3,6.9,2.6,12.5,7,16.7s11.1,6.3,20.1,6.3,11.3-.5,17.4-1.5,11.3-2.5,15.8-4.5l4.6,23.7c-5.8,2.9-12.4,5.1-19.7,6.7-7.3,1.5-14.8,2.3-22.7,2.3s-18.5-1.4-26-4.3c-7.5-2.8-13.8-6.8-18.9-11.8-5.1-5.1-8.9-11.1-11.5-18.2-2.6-7.1-3.9-14.9-3.9-23.5s1.3-17.5,4-24.8c2.7-7.4,6.5-13.6,11.5-18.7,5-5.1,11-9.1,18.1-11.8,7.1-2.8,15-4.1,23.7-4.1h0ZM422.3,98.7c-5.8,0-10.3,1.9-13.5,5.6-3.1,3.8-4.7,8.9-4.7,15.5h32.7c.3-1.2.5-2.5.5-3.9,0-4.9-1.3-9-3.9-12.3s-6.3-4.9-11-4.9h-.1Z"/>
              <path class="cls-2" d="M492.2,190.2V27.8h36.8v102.3l33.8-52.7h39.8l-36.3,55.4,41.2,57.3h-42.1l-36.3-54.5v54.5h-36.9Z"/>
              <path class="cls-2" d="M669.3,75.2c14.7,0,26.4,4.3,35,13s12.9,20.7,12.9,36-.7,12-2.1,18.6h-65.3c.3,6.9,2.6,12.5,7,16.7s11.1,6.3,20.1,6.3,11.3-.5,17.4-1.5c6.1-1,11.3-2.5,15.8-4.5l4.6,23.7c-5.8,2.9-12.4,5.1-19.7,6.7-7.3,1.5-14.8,2.3-22.7,2.3s-18.5-1.4-26-4.3c-7.5-2.8-13.8-6.8-18.9-11.8-5.1-5.1-8.9-11.1-11.5-18.2-2.6-7.1-3.9-14.9-3.9-23.5s1.3-17.5,4-24.8c2.7-7.4,6.5-13.6,11.5-18.7,5-5.1,11-9.1,18.1-11.8,7.1-2.8,15-4.1,23.7-4.1h0ZM668.2,98.7c-5.8,0-10.3,1.9-13.5,5.6-3.1,3.8-4.7,8.9-4.7,15.5h32.7c.3-1.2.5-2.5.5-3.9,0-4.9-1.3-9-3.9-12.3-2.6-3.3-6.3-4.9-11-4.9h0Z"/>
              <path class="cls-2" d="M749.6,237.6l14.7-44.6-40.7-115.5h38.2l20.7,80.3,20.5-80.3h37l-53.4,160.1h-37Z"/>
            </g>
          </g>
        </g>
      </g>
    </g>
  </g>
</svg>